Coordinates
version=1
nRows=17
nColumns=36
inDegrees=yes

Units are S.I. units (second, meters, Newtons, ...)
If the header above contains a line with 'inDegrees', this indicates whether rotational values are in degrees (yes) or radians (no).

endheader
time	pelvis_tilt	pelvis_list	pelvis_rotation	pelvis_tx	pelvis_ty	pelvis_tz	hip_flexion_r	hip_adduction_r	hip_rotation_r	knee_angle_r	knee_angle_r_beta	ankle_angle_r	subtalar_angle_r	mtp_angle_r	hip_flexion_l	hip_adduction_l	hip_rotation_l	knee_angle_l	knee_angle_l_beta	ankle_angle_l	subtalar_angle_l	mtp_angle_l	lumbar_extension	lumbar_bending	lumbar_rotation	arm_flex_r	arm_add_r	arm_rot_r	elbow_flex_r	pro_sup_r	arm_flex_l	arm_add_l	arm_rot_l	elbow_flex_l	pro_sup_l
      3.80000000	     -5.23168039	     -0.51151754	      0.78648076	      0.29980381	      1.00450034	     -0.02177380	     12.45238130	     -2.49782246	      4.31259173	     16.63192367	      0.29028183	      7.81146866	    -12.05753134	     -7.49999987	     10.84099243	     -7.67726556	      0.08864315	     13.94824874	      0.24344287	      3.72006293	     -8.31413954	     -7.49999987	     -8.13216276	     -0.50652055	      1.35141248	     -1.90058703	     -8.13157292	     10.79479208	     31.75080416	     70.61672369	     -0.34830392	    -10.94422839	     11.63637667	     35.40037867	     65.74206102
      3.81666670	     -5.22230177	     -0.60309004	      0.75877940	      0.30915529	      1.00787444	     -0.02362209	     11.40236227	     -2.35568123	      4.40127024	     15.14656943	      0.26435751	      7.40525937	    -11.80311253	     -7.49999987	      9.94342066	     -7.83751852	     -0.24836811	     12.69303659	      0.22153528	      3.46854626	     -7.75230726	     -7.49999987	     -7.46523051	     -0.51250972	      1.61107105	     -1.91398095	     -7.70796403	     10.10267128	     31.81070437	     70.62011425	     -0.29679864	    -10.86671261	     10.89876072	     35.78575523	     65.96289937
      3.83333330	     -5.12974580	     -0.67136552	      0.69202077	      0.31298841	      1.00532722	     -0.02818116	     10.26626729	     -2.38379398	      4.58280701	     13.75914115	      0.24014232	      7.09728291	    -11.78734399	     -7.49999987	      9.02793842	     -7.84021245	     -0.69807044	     11.65844741	      0.20347829	      3.48416631	     -7.27845155	     -7.49999987	     -6.84321569	     -0.36396191	      1.94549357	     -2.22761965	     -7.52512583	      9.42881682	     32.28302672	     70.75971430	     -0.45007893	    -10.61429030	      9.93594181	     36.53594602	     66.56888433
      3.85000000	     -5.37775189	     -0.61349933	      0.71769355	      0.31326522	      1.00497314	     -0.02853881	      9.66752022	     -2.57512683	      4.73078928	     12.54539380	      0.21895843	      6.76032111	    -11.90575694	     -7.49999987	      8.63639863	     -7.57945004	     -0.78443514	     10.70280029	      0.18679910	      3.33650110	     -7.22520234	     -7.49999987	     -5.78297946	     -0.37194594	      2.15951542	     -2.54226865	     -7.51038273	      8.92722758	     32.84904011	     69.80721804	     -0.67158183	    -10.33611431	      9.35700490	     37.48213613	     66.47462800
      3.86666670	     -5.46341279	     -0.58009043	      0.71687235	      0.31331949	      1.00839390	     -0.02831278	      9.06110579	     -2.71862916	      4.84856441	     11.47401034	      0.20025926	      6.46351138	    -11.73076578	     -7.49999987	      8.19741050	     -7.37949961	     -1.06976895	      9.93824490	      0.17345510	      3.32452646	     -6.74334470	     -7.49999987	     -5.22190007	     -0.27400669	      2.39478022	     -2.88488796	     -7.29565309	      7.41593884	     34.05712711	     73.03802943	     -0.67854260	     -9.96563662	      7.88545085	     38.73901909	     76.17096741
      3.88333330	     -5.79504431	     -0.43421645	      0.71854970	      0.30921430	      1.00496439	     -0.03309402	      9.10207784	     -3.06014148	      4.96879584	     10.83016523	      0.18902204	      6.16833130	    -11.72848036	     -7.49999987	      8.16050998	     -6.98141686	     -1.15692208	      9.26739801	      0.16174661	      3.32294597	     -6.50372758	     -7.49999987	     -4.52406047	     -0.24131071	      2.49851948	     -2.70478405	     -7.60851863	      7.74202623	     35.81936217	     73.22860844	     -0.61995586	     -9.79622734	      8.41157908	     40.49006883	     76.60861247
      3.90000000	     -5.99497926	     -0.27456456	      0.57030252	      0.30937268	      1.01101139	     -0.03256978	      9.01806880	     -3.35287948	      5.15548905	     10.17254918	      0.17754448	      5.84537906	    -11.49445472	     -7.49999987	      7.89008221	     -6.64072113	     -1.31635968	      8.34532119	      0.14565333	      3.00875826	     -6.31754474	     -7.49999987	     -3.84119666	     -0.26239664	      2.50375770	     -2.50498029	     -7.47598338	      7.91190384	     37.00799111	     73.34100793	     -0.51800675	     -9.66674417	      8.61606427	     41.44357414	     76.86268333
      3.91666670	     -5.95205983	     -0.18904747	      0.46976975	      0.30961922	      1.01095604	     -0.03285978	      8.80846474	     -3.52705712	      5.30843454	      9.70699400	      0.16941901	      5.41845364	    -11.54852615	     -7.49999987	      7.50589966	     -6.38027837	     -1.39493531	      7.65099980	      0.13353514	      2.83058732	     -6.28005559	     -7.49999987	     -3.77059771	     -0.26951621	      2.72489732	     -2.48045018	     -7.73918638	      6.86553375	     39.69845356	     75.16634552	     -0.30693814	     -9.51703841	      8.51800847	     42.94099274	     81.80472517
      3.93333330	     -6.15192454	     -0.07380868	      0.29978790	      0.30878777	      1.00745135	     -0.04074788	      9.04076695	     -3.86991945	      5.39722134	      9.49144466	      0.16565696	      5.17012708	    -11.33242056	     -7.49999987	      7.41961619	     -6.01759053	     -1.52156236	      7.15471652	      0.12487336	      2.82434394	     -6.27166847	     -7.49999987	     -3.12232407	     -0.09042530	      2.70335908	     -2.12367958	     -8.02969588	      6.99005229	     40.91402467	     75.23879870	     -0.33383745	     -9.19012080	      8.67101378	     43.64668156	     81.89665670
      3.95000000	     -6.24113850	      0.00606139	      0.23765177	      0.30511583	      1.00435570	     -0.03582774	      9.30139135	     -3.99508314	      5.64232284	      9.53039830	      0.16633683	      5.21890845	    -11.34099513	     -7.49999987	      7.54096700	     -5.79042415	     -1.45319429	      7.00724094	      0.12229943	      2.88922861	     -6.48069110	     -7.49999987	     -3.05554476	     -0.00512346	      2.90269711	     -1.87080517	     -8.54484031	      6.81289878	     43.80316894	     75.50960586	     -0.21926839	     -9.09154935	      8.81949593	     45.36081295	     82.51164870
      3.96666670	     -6.46989502	      0.13733779	      0.14288459	      0.30906488	      1.00487668	     -0.04011664	      9.62542233	     -4.26400414	      5.71786821	      9.60518627	      0.16764213	      5.25531751	    -11.17387218	     -7.49999987	      7.66175686	     -5.48994188	     -1.49490179	      6.75660649	      0.11792503	      2.93996996	     -6.35101319	     -7.49999987	     -2.43818627	      0.07273664	      2.93358174	     -1.70980445	     -8.66981975	      7.09499503	     45.53000556	     75.66997596	     -0.20247411	     -8.97853157	      9.16353235	     46.47133262	     82.81207311
      3.98333330	     -6.62335716	      0.23815608	      0.00891380	      0.30074541	      1.00489930	     -0.03976263	     10.18628691	     -4.41775305	      5.96943630	      9.97759511	      0.17414189	      5.41695346	    -11.13729497	     -7.49999987	      7.99312781	     -5.26036884	     -1.46871712	      6.81377738	      0.11892285	      2.97272873	     -6.57634002	     -7.49999987	     -2.36112042	      0.18259405	      3.01634351	     -1.15163675	     -8.93936749	      7.28602365	     47.33297060	     75.82491059	      0.28233548	     -8.89623713	      9.46878529	     47.74958776	     83.17283283
      4.00000000	     -6.61174110	      0.29166027	     -0.05269645	      0.30028525	      1.00270587	     -0.03875969	     10.40448843	     -4.51619214	      6.03145620	     10.17969645	      0.17766922	      5.45581918	    -11.37431889	     -7.49999987	      8.22220677	     -5.11373306	     -1.43516506	      6.95301331	      0.12135298	      2.94682654	     -6.94133858	     -7.49999987	     -2.42012758	      0.27137031	      2.97922014	     -0.83901801	     -8.87552385	      7.84458561	     48.94116601	     75.10971774	      0.76887039	     -8.90483617	      9.69233309	     48.95447058	     82.51788297
      4.01666670	     -6.87383873	      0.35993318	     -0.14661674	      0.30067278	      1.00596782	     -0.03938055	     11.00415657	     -4.60364478	      6.06100025	     10.55865278	      0.18428326	      5.52449677	    -11.52231524	     -7.49999987	      8.87447272	     -4.98781332	     -1.40423844	      7.36484000	      0.12854071	      2.87525439	     -7.27160558	     -7.49999987	     -2.13712060	      0.37323606	      2.96044806	     -0.32318098	     -8.92415909	      8.11760266	     50.31120536	     75.33618937	      1.09470137	     -8.83342780	      9.85896567	     50.01687732	     83.09853694
      4.03333330	     -6.88564112	      0.38240447	     -0.26093255	      0.29183699	      1.00639834	     -0.03800322	     11.50540307	     -4.59044147	      6.07950011	     11.01841604	      0.19230764	      5.51837500	    -11.65670428	     -7.49999987	      9.46134224	     -4.96124138	     -1.52935722	      7.99122906	      0.13947326	      2.85039920	     -7.57824377	     -7.49999987	     -2.36807453	      0.46397642	      2.94197371	      0.40842188	     -8.70070890	      8.40275898	     50.84731759	     75.43299496	      1.84601282	     -8.72796467	      9.96859257	     50.53565986	     83.36533454
      4.05000000	     -7.03514327	      0.33952732	     -0.31098216	      0.28785525	      1.00638287	     -0.03356910	     12.13083034	     -4.39014536	      6.16522319	     11.41110257	      0.19916131	      5.54383647	    -11.88920313	     -7.49999987	     10.21157105	     -5.12292512	     -1.45334204	      8.65163431	      0.15099950	      2.80552350	     -7.77556200	     -7.49999987	     -2.52772551	      0.44099411	      2.86422434	      1.20424018	     -8.52343028	      8.69235917	     51.43010985	     75.52232222	      2.48264360	     -8.74048742	     10.09385130	     51.07259934	     83.67279899
      4.06666670	     -7.32817539	      0.22831347	     -0.34334492	      0.28767843	      1.00629962	     -0.03307839	     12.87661934	     -4.14622645	      6.12986279	     11.88507292	      0.20743365	      5.34810850	    -12.30652365	     -7.49999987	     11.16339936	     -5.39596032	     -1.46743761	      9.45184557	      0.16496583	      2.75569962	     -7.90855594	     -7.49999987	     -2.41691896	      0.52988030	      2.55252648	      1.95322376	     -8.33227787	     10.11564164	     51.37391455	     76.08332586	      2.51588275	     -8.82769041	      9.05785799	     51.84297284	     88.92135609
